#N canvas 654 468 597 298 10;
#X obj 182 222 udpsend;
#X msg 19 161 disconnect;
#X obj 171 154 packOSC;
#X msg 70 76 send /1/freq \$1;
#X msg 64 50 55;
#X msg 127 50 165;
#X msg 8 19 connect localhost 57120;
#X msg 95 51 104;
#X msg 172 37 1;
#X msg 250 41 15;
#X msg 174 74 send /1/ampl \$1;
#X msg 206 40 5.5;
#X msg 287 40 1;
#X msg 320 40 0;
#X msg 381 30 1;
#X msg 414 30 0;
#X msg 276 73 send /1/tone \$1;
#X msg 378 72 send /1/misc \$1;
#X connect 1 0 0 0;
#X connect 2 0 0 0;
#X connect 3 0 2 0;
#X connect 4 0 3 0;
#X connect 5 0 3 0;
#X connect 6 0 0 0;
#X connect 7 0 3 0;
#X connect 8 0 10 0;
#X connect 9 0 10 0;
#X connect 10 0 2 0;
#X connect 11 0 10 0;
#X connect 12 0 16 0;
#X connect 13 0 16 0;
#X connect 14 0 17 0;
#X connect 15 0 17 0;
#X connect 16 0 2 0;
#X connect 17 0 2 0;
