#N canvas 599 23 802 432 10;
#X obj 34 124 print osc;
#X obj 320 93 unpackOSC;
#X obj 213 407 noteout;
#X obj 156 282 range 50 165 1 127;
#X obj 292 282 range 1 15 0 127;
#X obj 343 336 ctlout;
#X text 274 190 amplitude 1-15;
#X text 132 191 frequency 50-165;
#X text 423 189 tone 0 \, 1;
#X floatatom 85 337 5 0 0 0 - - -;
#X floatatom 53 232 5 0 0 0 - - -;
#X obj 319 119 routeOSC /1;
#X obj 134 207 routeOSC /freq;
#X obj 393 207 routeOSC /tone;
#X obj 164 247 print freq;
#X floatatom 242 242 5 0 0 0 - - -;
#X obj 504 235 print tone;
#X msg 289 385 1;
#X obj 277 335 loadbang;
#X obj 102 386 print makenote;
#X obj 147 336 makenote 110 500;
#X obj 266 209 routeOSC /ampl;
#X obj 577 208 routeOSC /misc;
#X obj 319 35 udpreceive 57120;
#X obj 680 230 print misc;
#X text 394 119 PLAYER NUMBER;
#X text 313 23 comment;
#X msg 219 305 100;
#X msg 370 308 75;
#X obj 301 244 print ampl;
#X obj 457 292 ctlout;
#X msg 472 266 76;
#X obj 401 237 range 0 1 0 127;
#X obj 628 293 ctlout;
#X obj 576 237 range 0 1 0 127;
#X msg 645 263 77;
#X text 640 193 misc;
#X text 314 402 midi ch;
#X obj 570 265 loadbang;
#X floatatom 329 302 5 0 0 0 - - -;
#X connect 1 0 0 0;
#X connect 1 0 11 0;
#X connect 3 0 9 0;
#X connect 3 0 20 0;
#X connect 4 0 2 1;
#X connect 4 0 5 0;
#X connect 4 0 39 0;
#X connect 11 0 12 0;
#X connect 11 0 13 0;
#X connect 11 0 21 0;
#X connect 11 0 22 0;
#X connect 12 0 10 0;
#X connect 12 0 14 0;
#X connect 12 0 3 0;
#X connect 13 0 16 0;
#X connect 13 0 32 0;
#X connect 17 0 2 2;
#X connect 17 0 5 2;
#X connect 17 0 30 2;
#X connect 17 0 33 2;
#X connect 18 0 17 0;
#X connect 18 0 28 0;
#X connect 18 0 27 0;
#X connect 20 0 2 0;
#X connect 20 0 19 0;
#X connect 20 1 2 1;
#X connect 21 0 4 0;
#X connect 21 0 15 0;
#X connect 21 0 29 0;
#X connect 22 0 24 0;
#X connect 22 0 34 0;
#X connect 23 0 1 0;
#X connect 27 0 20 1;
#X connect 28 0 5 1;
#X connect 31 0 30 1;
#X connect 32 0 30 0;
#X connect 34 0 33 0;
#X connect 35 0 33 1;
#X connect 38 0 31 0;
#X connect 38 0 35 0;
#X coords 0 0 1 1 85 60 0;
